<?xml version="1.0" encoding="iso-8859-1"?>
<!-- Generator: Adobe Illustrator 19.0.0, SVG Export Plug-In . SVG Version: 6.00 Build 0)  -->
<svg version="1.1" id="Layer_1" xmlns="http://www.w3.org/2000/svg" xmlns:xlink="http://www.w3.org/1999/xlink" x="0px" y="0px"
	 viewBox="0 0 512 512" style="enable-background:new 0 0 512 512;" xml:space="preserve">
<rect style="fill:#21D8DE;" width="512" height="512"/>
<path style="fill:#FFFFFF;" d="M384.947,193.69c0-32.315-13.258-61.537-34.627-82.516h-0.003
	c-7.708-7.572-16.466-14.062-26.025-19.236c-16.351-8.863-35.09-13.885-54.991-13.885c-63.862,0-115.633,51.768-115.633,115.638
	v0.072c-9.958,11.341-18.87,23.606-26.609,36.659c9.352,5.545,18.243,11.763,26.609,18.621v60.275h50.834
	c17.672,31.163,27.763,67.18,27.763,105.569c0,6.423-0.279,12.78-0.832,19.064c34.414-40.343,79.828-71.017,131.61-87.391
	c-13.65-16.246-25.229-34.245-34.365-53.635C362.383,272.732,384.947,235.843,384.947,193.69z"/>
<path style="fill:#FF6D3B;" d="M270.049,103.014c-37.548,0-69.455,24.161-81.001,57.792c-0.123,0.328-0.22,0.65-0.32,0.963
	c-0.622,1.946-0.942,4.012-0.942,6.154c0,11.443,9.288,20.744,20.71,20.744h34.153c-2.066,3.016-3.284,6.659-3.284,10.604
	c0,10.386,8.422,18.801,18.806,18.801h19.412l7.708,25.651h12.792l-7.711-25.651h0.015c5.724,7.081,14.472,11.62,24.284,11.62
	c1.073,0,2.143-0.056,3.187-0.164c21.158-1.631,37.837-19.279,37.837-40.858C355.699,141.363,317.35,103.014,270.049,103.014z"/>
<g>
</g>
<g>
</g>
<g>
</g>
<g>
</g>
<g>
</g>
<g>
</g>
<g>
</g>
<g>
</g>
<g>
</g>
<g>
</g>
<g>
</g>
<g>
</g>
<g>
</g>
<g>
</g>
<g>
</g>
</svg>
